<?xml version="1.0" encoding="UTF-8" standalone="no"?>
<!DOCTYPE svg PUBLIC "-//W3C//DTD SVG 20010904//EN"
              "http://www.w3.org/TR/2001/REC-SVG-20010904/DTD/svg10.dtd">

<svg xmlns="http://www.w3.org/2000/svg"
     width="462.556mm" height="713.945mm"
     viewBox="0 0 1748 2698">
  <path id="Unnamed"
        fill="none" stroke="black" stroke-width="1"
        d="M 357.00,2565.00
           C 357.00,2565.00 358.00,2695.00 358.00,2695.00
             358.00,2695.00 11.00,2695.00 11.00,2695.00
             11.00,2695.00 11.00,9.00 11.00,9.00
             11.00,9.00 92.00,10.00 92.00,10.00
             92.00,10.00 93.00,2628.00 93.00,2628.00
             93.00,2628.00 358.00,2630.00 358.00,2630.00
             358.00,2630.00 358.00,1481.00 358.00,1481.00
             358.00,1481.00 359.00,1410.00 359.00,1410.00
             356.28,1415.61 482.00,1413.00 650.89,1412.97
             749.00,1412.00 863.00,1410.00 963.00,1405.00
             1052.00,1411.00 1196.00,1376.00 1243.85,1358.63
             1337.00,1327.00 1418.00,1289.00 1457.00,1256.50
             1526.00,1206.50 1593.00,1152.00 1652.00,1033.00
             1652.00,1033.00 1686.00,974.00 1696.00,906.00
             1715.00,839.00 1716.00,758.00 1716.00,758.00
             1728.00,651.00 1698.00,476.00 1671.00,430.00
             1644.00,335.00 1561.00,241.00 1497.00,193.00
             1401.00,114.00 1296.00,70.00 1166.00,41.00
             1166.92,35.96 957.00,8.00 920.00,10.00
             920.00,10.00 655.00,9.00 655.00,9.00
             655.00,9.00 367.00,8.00 367.00,8.00
             367.00,8.00 93.00,10.00 93.00,10.00M 1458.00,1256.00
           C 1466.50,1255.50 1381.57,1326.11 1374.50,1325.00
             1376.84,1327.49 1279.28,1385.50 1276.00,1382.00
             1279.31,1384.84 1189.61,1422.07 1145.50,1432.50
             1112.50,1445.50 980.11,1470.95 977.00,1467.50
             977.00,1467.50 876.00,1478.00 876.00,1478.00
             876.00,1478.00 755.00,1481.00 755.00,1481.00
             755.00,1481.00 425.00,1481.00 425.00,1481.00
             425.00,1481.00 359.00,1482.00 359.00,1482.00M 358.50,1167.50
           C 358.50,1167.50 359.00,321.50 359.00,321.50
             359.00,321.50 359.00,253.00 359.00,253.00
             359.00,253.00 782.00,253.00 782.00,253.00
             782.00,253.00 862.00,254.00 862.00,254.00
             862.00,254.00 974.00,264.50 974.00,264.50
             974.57,264.41 1045.04,276.31 1040.50,277.00
             1037.44,275.31 1110.55,294.15 1117.50,298.00
             1117.50,295.25 1186.50,322.00 1188.00,325.00
             1185.25,321.50 1261.50,362.00 1266.50,370.50
             1266.50,367.50 1325.80,418.38 1326.50,424.50
             1325.24,417.21 1377.57,487.79 1379.25,497.50
             1379.75,493.00 1413.25,571.75 1409.00,572.00
             1410.75,568.25 1424.86,632.70 1424.00,636.25
             1425.42,631.74 1430.86,695.04 1430.00,697.75
             1431.00,698.16 1427.41,764.13 1426.50,763.75
             1427.91,767.66 1414.56,838.88 1413.25,835.25
             1413.95,839.59 1390.62,903.51 1390.25,901.25
             1389.00,906.50 1364.25,950.95 1363.50,949.00
             1363.96,949.06 1337.68,984.03 1337.50,984.00
             1329.25,995.25 1304.40,1019.09 1303.50,1019.00
             1303.50,1019.00 1269.75,1046.50 1269.75,1046.50
             1269.80,1047.14 1222.58,1078.61 1222.50,1077.50
             1223.98,1077.58 1144.67,1114.19 1141.00,1114.00
             1145.78,1113.31 1071.25,1138.00 1046.00,1142.50
             1038.00,1146.50 930.00,1163.75 889.00,1165.00
             888.79,1166.19 762.26,1169.36 762.50,1168.00
             762.50,1168.00 644.50,1168.50 644.50,1168.50
             644.50,1168.50 358.50,1168.50 358.50,1168.50M 1210.50,1210.50M 1248.25,1061.00
           C 1248.25,1061.00 1257.50,1049.75 1257.50,1049.75
             1257.50,1049.75 1264.75,1041.00 1264.75,1041.00
             1264.75,1041.00 1271.50,1032.50 1271.50,1032.50
             1271.50,1032.50 1279.50,1021.25 1279.50,1021.25
             1279.50,1021.25 1284.50,1013.25 1284.50,1013.25
             1284.50,1013.25 1292.25,1000.50 1292.25,1000.50
             1292.25,1000.50 1298.75,989.25 1298.75,989.25
             1298.75,989.25 1303.75,979.50 1303.75,979.50
             1303.75,979.50 1309.00,967.25 1309.00,967.25
             1309.00,967.25 1313.25,958.25 1313.25,958.25
             1313.25,958.25 1318.00,945.00 1318.00,945.00
             1318.00,945.00 1322.25,932.75 1322.25,932.75
             1322.25,932.75 1326.50,919.00 1326.50,919.00
             1326.50,919.00 1330.75,905.25 1330.75,905.25
             1330.75,905.25 1334.25,890.25 1334.25,890.25
             1334.25,890.25 1337.75,873.50 1337.75,873.50
             1337.75,873.50 1341.25,852.25 1341.25,852.25
             1341.25,852.25 1343.50,832.00 1343.50,832.00
             1343.50,832.00 1345.75,812.50 1345.75,812.50
             1345.75,812.50 1346.50,790.25 1346.50,790.25
             1346.50,790.25 1346.75,770.75 1346.75,770.75
             1346.75,770.75 1346.25,754.75 1346.25,754.75
             1346.25,754.75 1345.25,740.25 1345.25,740.25
             1345.25,740.25 1344.50,727.50 1344.50,727.50
             1344.50,727.50 1342.75,715.50 1342.75,715.50
             1342.75,715.50 1340.75,699.75 1340.75,699.75
             1340.75,699.75 1337.00,680.25 1337.00,680.25
             1337.00,680.25 1333.00,663.50 1333.00,663.50
             1333.00,663.50 1328.25,646.25 1328.25,646.25
             1328.25,646.25 1323.00,628.75 1323.00,628.75
             1323.00,628.75 1317.50,613.25 1317.50,613.25
             1317.50,613.25 1313.00,601.25 1313.00,601.25
             1313.00,601.25 1306.75,586.75 1306.75,586.75
             1306.75,586.75 1300.25,573.25 1300.25,573.25
             1300.25,573.25 1294.00,561.50 1294.00,561.50
             1294.00,561.50 1287.25,550.50 1287.25,550.50
             1287.25,550.50 1279.50,538.25 1279.50,538.25
             1279.50,538.25 1270.50,524.75 1270.50,524.75
             1270.50,524.75 1259.75,510.75 1259.75,510.75
             1259.75,510.75 1250.25,500.50 1250.25,500.50
             1250.25,500.50 1237.25,485.50 1237.25,485.50
             1237.25,485.50 1224.25,472.50 1224.25,472.50
             1224.25,472.50 1208.75,458.25 1208.75,458.25
             1208.75,458.25 1193.50,445.50 1193.50,445.50
             1193.50,445.50 1174.75,431.75 1174.75,431.75
             1174.75,431.75 1156.00,420.00 1156.00,420.00
             1156.00,420.00 1136.25,407.25 1136.00,407.25
             1135.75,407.25 1115.50,397.00 1115.50,397.00
             1115.50,397.00 1095.25,388.00 1095.25,388.00
             1095.25,388.00 1072.25,378.25 1072.25,378.25
             1072.25,378.25 1042.50,367.75 1042.50,367.75
             1042.50,367.75 1021.00,360.50 1021.00,360.50
             1021.00,360.50 1002.00,355.25 1002.00,355.25
             1002.00,355.25 984.50,350.25 984.50,350.25
             984.50,350.25 967.75,346.00 967.75,346.00
             967.75,346.00 948.75,342.25 948.75,342.25
             948.75,342.25 931.25,339.50 931.25,339.50
             931.25,339.50 906.75,334.75 906.75,334.75
             906.75,334.75 892.75,333.00 892.75,333.00
             892.75,333.00 856.50,328.75 856.50,328.75
             856.50,328.75 837.25,327.00 837.25,327.00
             837.25,327.00 816.50,325.25 816.50,325.25
             816.50,325.25 791.75,323.75 791.75,323.75
             791.75,323.75 776.50,323.00 776.50,323.00
             776.50,323.00 756.25,322.00 756.25,322.00
             756.25,322.00 729.50,321.50 729.50,321.50
             729.50,321.50 711.25,321.50 711.25,321.50
             711.25,321.50 697.50,321.75 697.50,321.75
             697.50,321.75 678.50,321.75 678.50,321.75
             678.50,321.75 656.25,321.25 656.25,321.25
             656.25,321.25 618.50,321.50 618.50,321.50
             618.50,321.50 587.25,321.50 587.25,321.50
             587.25,321.50 544.50,321.50 544.50,321.50
             544.50,321.50 502.25,321.50 502.25,321.50
             502.25,321.50 459.75,321.50 459.75,321.50
             459.75,321.50 418.25,321.75 418.25,321.75
             418.25,321.75 377.50,322.00 377.50,322.00
             377.50,322.00 359.00,321.50 359.00,321.50" />
</svg>
